<svg width="26" height="25" viewBox="0 0 26 25" fill="none" xmlns="http://www.w3.org/2000/svg">
<rect x="5" y="11" width="16" height="2" rx="1" fill="#666666"/>
<rect x="5" y="15" width="16" height="2" rx="1" fill="#666666"/>
<rect x="5" y="19" width="16" height="2" rx="1" fill="#666666"/>
<path fill-rule="evenodd" clip-rule="evenodd" d="M16.6833 1.52344L24.5844 9.43026C25.1726 10.0151 25.5023 10.8112 25.5 11.641V21.8731C25.5 23.6001 24.1009 25 22.375 25H3.62502C1.89913 25 0.500025 23.6001 0.500025 21.8731V11.641C0.497663 10.8112 0.827407 10.0151 1.41565 9.43026L9.31667 1.52344C11.3527 -0.507813 14.6473 -0.507813 16.6833 1.52344ZM22.45 23C23.0299 23 23.5 22.5295 23.5 21.9491V11.6325C23.4982 11.3551 23.3877 11.0895 23.1924 10.8927L15.2281 2.92064C13.9959 1.69312 12.0041 1.69312 10.7719 2.92064L2.80765 10.8895C2.6115 11.0871 2.50097 11.354 2.5 11.6325V21.9491C2.5 22.5295 2.9701 23 3.55 23H7.75H18.25H22.45Z" fill="#666666"/>
</svg>
