<svg width="25" height="25" viewBox="0 0 25 25" fill="none" xmlns="http://www.w3.org/2000/svg">
<path fill-rule="evenodd" clip-rule="evenodd" d="M18.6104 7.29167H21.875C23.6009 7.29167 25 8.69078 25 10.4167V14.5833H22.9167V25H2.08333V14.5833H0V10.4167C0 8.69078 1.39911 7.29167 3.125 7.29167H6.38958C4.92877 5.95979 4.11775 4.05957 4.16667 2.08333H6.25C6.25 5.08437 8.30313 6.56979 10.575 7.08333C9.89284 5.86646 9.48338 4.51582 9.375 3.125C9.375 1.39911 10.7741 0 12.5 0C14.2259 0 15.625 1.39911 15.625 3.125C15.5166 4.51582 15.1072 5.86646 14.425 7.08333C16.6969 6.56979 18.75 5.08437 18.75 2.08333H20.8333C20.8822 4.05957 20.0712 5.95979 18.6104 7.29167ZM13.5417 3.125C13.5417 2.5497 13.0753 2.08333 12.5 2.08333C11.9247 2.08333 11.4583 2.5497 11.4583 3.125C11.5841 4.23211 11.9388 5.30095 12.5 6.26354C13.0612 5.30095 13.4159 4.23211 13.5417 3.125ZM2.08333 10.4167C2.08333 9.84137 2.5497 9.375 3.125 9.375H11.4583V12.5H2.08333V10.4167ZM11.4583 14.5833H4.16667V22.9167H11.4583V14.5833ZM20.8333 22.9167H13.5417V14.5833H20.8333V22.9167ZM13.5417 12.5H22.9167V10.4167C22.9167 9.84137 22.4503 9.375 21.875 9.375H13.5417V12.5Z" fill="black"/>
</svg>
