<svg width="20" height="25" viewBox="0 0 20 25" fill="none" xmlns="http://www.w3.org/2000/svg">
<path d="M10 14.0167C7.59612 14.0196 5.52475 12.3381 5.05198 10C5.015 9.75832 5.08689 9.51268 5.24862 9.32818C5.41035 9.14368 5.6456 9.03895 5.89205 9.04172C6.30552 9.03575 6.66187 9.32915 6.73213 9.73338C7.05822 11.2774 8.43074 12.3832 10.021 12.3832C11.6113 12.3832 12.9838 11.2774 13.3099 9.73338C13.3801 9.32915 13.7365 9.03575 14.15 9.04172C14.3964 9.03895 14.6317 9.14368 14.7934 9.32818C14.9551 9.51268 15.027 9.75832 14.99 10C14.5142 12.3535 12.4196 14.0396 10 14.0167Z" fill="#666666"/>
<path fill-rule="evenodd" clip-rule="evenodd" d="M2.52337 25H17.4766C18.1674 25.0009 18.8283 24.7204 19.3048 24.2242C19.7812 23.7279 20.0314 23.0595 19.9968 22.375L19.3164 8.00837C19.2579 6.67014 18.1465 5.61544 16.7962 5.6167H3.20383C1.85351 5.61544 0.742127 6.67014 0.683613 8.00837L0.00315588 22.375C-0.0313856 23.0595 0.218808 23.7279 0.695235 24.2242C1.17166 24.7204 1.83255 25.0009 2.52337 25ZM2.36376 8.12503C2.36376 7.6648 2.73987 7.2917 3.20383 7.2917L16.7962 7.25837C17.2601 7.25837 17.6362 7.63146 17.6362 8.0917L18.3167 22.4584C18.3282 22.6865 18.2448 22.9093 18.086 23.0747C17.9272 23.2402 17.7069 23.3337 17.4766 23.3334H2.52337C2.2931 23.3337 2.0728 23.2402 1.91399 23.0747C1.75518 22.9093 1.67178 22.6865 1.6833 22.4584L2.36376 8.12503Z" fill="#666666"/>
<path d="M15.0404 6.45833H13.3603V5C13.3603 3.15905 11.8558 1.66667 10 1.66667C8.14417 1.66667 6.63972 3.15905 6.63972 5V6.45833H4.95958V5C4.95958 2.23858 7.21625 0 10 0C12.7838 0 15.0404 2.23858 15.0404 5V6.45833Z" fill="#666666"/>
</svg>
